<?xml version="1.0" standalone="no"?>
<!DOCTYPE svg PUBLIC "-//W3C//DTD SVG 20010904//EN"
 "http://www.w3.org/TR/2001/REC-SVG-20010904/DTD/svg10.dtd">
<svg version="1.0" xmlns="http://www.w3.org/2000/svg"
 width="260.000000pt" height="260.000000pt" viewBox="0 0 260.000000 260.000000"
 preserveAspectRatio="xMidYMid meet">
<metadata>
Created by potrace 1.14, written by Peter Selinger 2001-2017
</metadata>
<g transform="translate(0.000000,260.000000) scale(0.100000,-0.100000)"
fill="#000000" stroke="none">
<path d="M1117 2345 c-219 -42 -393 -132 -554 -288 -143 -139 -239 -302 -290
-495 -24 -86 -27 -116 -27 -262 0 -146 3 -176 27 -262 50 -186 134 -335 270
-475 139 -143 302 -239 495 -290 86 -23 116 -26 262 -26 146 0 176 3 262 26
193 51 356 147 495 290 136 140 221 289 270 475 23 86 26 116 26 262 0 146 -3
176 -26 262 -51 193 -147 356 -290 495 -141 136 -291 222 -475 270 -124 32
-327 40 -445 18z m423 -104 c168 -44 323 -133 445 -256 123 -122 211 -275 256
-445 33 -122 33 -346 1 -474 -72 -286 -267 -520 -537 -647 -136 -64 -234 -84
-410 -83 -124 0 -165 4 -235 23 -286 77 -516 268 -640 535 -66 140 -84 228
-84 406 0 130 3 169 23 240 77 287 268 516 535 640 73 35 190 71 271 83 76 12
291 -1 375 -22z"/>
<path d="M1170 2188 c-91 -13 -232 -62 -320 -111 -103 -58 -269 -224 -327
-327 -93 -167 -136 -371 -114 -547 24 -202 103 -371 238 -513 129 -136 258
-213 441 -262 93 -25 294 -30 387 -9 304 68 563 288 663 563 46 127 56 191 55
328 -2 256 -92 462 -283 643 -100 95 -197 153 -325 196 -144 48 -272 60 -415
39z m340 -108 c281 -78 491 -289 571 -575 32 -113 32 -297 0 -410 -81 -288
-288 -495 -576 -576 -113 -32 -297 -32 -410 0 -288 81 -496 289 -576 576 -33
114 -33 297 -1 410 63 218 201 397 392 503 66 37 190 80 268 92 85 13 246 3
332 -20z"/>
<path d="M1246 2033 l-49 -4 6 -137 c3 -75 3 -130 0 -122 -3 8 -24 66 -46 128
-39 111 -40 113 -66 107 -41 -10 -161 -67 -161 -77 0 -4 27 -63 61 -131 l60
-122 -58 65 c-32 36 -76 84 -98 108 l-40 43 -73 -73 -73 -73 33 -30 c18 -16
65 -58 103 -93 78 -70 70 -70 -74 2 -50 25 -95 46 -99 46 -10 0 -67 -120 -77
-161 -6 -25 -3 -27 122 -72 l128 -46 -136 6 -137 6 -3 -52 c-2 -28 -2 -74 0
-102 l3 -52 137 6 136 7 -55 -20 c-217 -78 -202 -70 -195 -99 10 -41 67 -161
77 -161 4 0 63 27 131 61 67 33 113 52 102 42 -11 -11 -60 -55 -108 -98 l-88
-78 68 -69 c37 -37 73 -68 79 -68 7 0 49 43 95 95 46 52 84 95 86 95 5 0 -17
-50 -61 -139 -25 -50 -46 -95 -46 -99 0 -10 120 -67 161 -77 25 -6 27 -3 72
122 l46 128 -6 -136 -6 -137 52 -3 c28 -2 74 -2 102 0 l52 3 -6 137 -7 136 47
-128 c44 -123 47 -128 70 -122 42 10 163 67 163 76 0 5 -27 63 -60 129 -33 66
-59 120 -57 120 2 0 43 -45 92 -100 48 -55 92 -100 99 -100 15 0 136 122 136
137 0 6 -45 50 -100 98 -55 49 -100 90 -100 92 0 2 54 -24 120 -57 66 -33 124
-60 129 -60 9 0 64 119 74 161 7 26 4 28 -106 67 -61 21 -119 42 -127 45 -8 3
47 3 123 0 l137 -6 0 103 0 103 -137 -6 -138 -6 127 46 c125 45 128 46 121 72
-10 43 -65 161 -75 161 -4 0 -43 -17 -86 -39 -81 -41 -152 -72 -152 -67 0 2
43 40 95 86 52 46 95 88 95 94 0 15 -122 136 -136 136 -7 0 -51 -45 -100 -100
-49 -55 -90 -100 -91 -100 -2 0 24 54 57 120 33 66 60 124 60 128 0 10 -120
67 -161 77 -29 7 -21 22 -99 -195 l-20 -55 7 138 6 137 -41 0 c-22 0 -46 1
-54 3 -7 2 -35 2 -62 0z"/>
</g>
</svg>
